<?xml version="1.0" encoding="utf-8"?>
<!-- Generator: Adobe Illustrator 16.0.0, SVG Export Plug-In . SVG Version: 6.00 Build 0)  -->
<!DOCTYPE svg PUBLIC "-//W3C//DTD SVG 1.1//EN" "http://www.w3.org/Graphics/SVG/1.1/DTD/svg11.dtd">
<svg version="1.1" id="Layer_1" xmlns="http://www.w3.org/2000/svg" xmlns:xlink="http://www.w3.org/1999/xlink" x="0px" y="0px"
	 width="256px" height="256px" viewBox="0 0 256 256" enable-background="new 0 0 256 256" xml:space="preserve">
<circle fill-rule="evenodd" clip-rule="evenodd" fill="#FFDE17" stroke="#FFDE17" stroke-width="7" stroke-miterlimit="10" cx="128" cy="128.299" r="124"/>
<g>
	<g>
		<path fill="#7EB481" d="M144.385,250.959c-0.063,0-0.116-0.046-0.124-0.109c-0.009-0.068,0.04-0.131,0.108-0.14l2.159-0.275
			c0.914-0.144,2.104-0.358,3.48-0.606c0.675-0.122,1.398-0.252,2.164-0.388c0.573-0.091,1.154-0.227,1.77-0.37l0.036-0.009
			l4.95-1.154l5.239-1.479c1.193-0.363,2.402-0.777,3.571-1.177c0.614-0.21,1.229-0.421,1.847-0.625
			c1.179-0.401,2.361-0.875,3.505-1.332c0.62-0.248,1.24-0.496,1.865-0.736c7.207-2.968,14.172-6.646,20.698-10.928
			c13.505-8.848,25.455-20.593,34.557-33.964c9.503-13.925,16.147-30.104,19.217-46.79c3.173-17.209,2.649-35.273-1.515-52.239
			c-4.141-17.137-12.382-33.714-23.834-47.94c-11.316-14.067-26.052-25.747-42.614-33.778
			c-16.567-7.933-35.049-12.132-53.447-12.142c-18.394,0.003-36.877,4.197-53.45,12.128c-16.555,8.018-31.294,19.693-42.625,33.764
			C20.492,64.886,12.246,81.461,8.096,98.602c-4.169,16.964-4.698,35.028-1.529,52.239c3.063,16.682,9.704,32.863,19.203,46.796
			c9.097,13.373,21.043,25.121,34.547,33.974c6.526,4.284,13.49,7.964,20.698,10.936c0.62,0.237,1.238,0.485,1.856,0.732
			c1.146,0.458,2.33,0.932,3.511,1.336c0.615,0.204,1.229,0.414,1.841,0.624c1.171,0.4,2.381,0.813,3.578,1.181l5.454,1.542
			l4.766,1.101c0.627,0.146,1.22,0.285,1.803,0.379c0.751,0.133,1.459,0.26,2.122,0.38c1.396,0.251,2.601,0.468,3.53,0.614
			l2.155,0.275l-0.032,0.248l-2.158-0.276c-0.935-0.146-2.142-0.364-3.539-0.616c-0.662-0.119-1.371-0.246-2.119-0.379
			c-0.59-0.095-1.187-0.233-1.818-0.381l-4.771-1.103l-5.462-1.545c-1.203-0.368-2.415-0.783-3.587-1.184
			c-0.612-0.209-1.225-0.419-1.841-0.624c-1.188-0.406-2.375-0.881-3.524-1.341c-0.617-0.246-1.235-0.493-1.856-0.731
			c-7.226-2.979-14.204-6.666-20.742-10.959c-13.531-8.87-25.501-20.642-34.617-34.042C16.044,183.816,9.39,167.602,6.32,150.886
			c-3.175-17.245-2.645-35.345,1.532-52.343c4.159-17.176,12.422-33.785,23.896-48.031c11.353-14.1,26.122-25.798,42.71-33.832
			C91.066,8.732,109.587,4.53,128.018,4.527c18.435,0.01,36.954,4.217,53.555,12.167c16.596,8.047,31.361,19.75,42.701,33.846
			c11.475,14.255,19.732,30.866,23.881,48.038c4.173,17,4.698,35.1,1.519,52.343c-3.075,16.72-9.734,32.933-19.256,46.886
			c-9.12,13.398-21.094,25.167-34.627,34.032c-6.54,4.291-13.519,7.976-20.742,10.951c-0.627,0.24-1.246,0.488-1.865,0.736
			c-1.146,0.458-2.332,0.933-3.519,1.336c-0.617,0.205-1.231,0.415-1.845,0.625c-1.171,0.4-2.382,0.814-3.582,1.18l-5.459,1.542
			l-4.78,1.104c-0.619,0.145-1.205,0.282-1.785,0.373c-0.763,0.136-1.486,0.266-2.161,0.388c-1.378,0.248-2.568,0.463-3.489,0.607
			l-2.163,0.276C144.396,250.959,144.39,250.959,144.385,250.959z"/>
		<g>
			<g>
				<path fill="#51A25E" d="M128.734,249.733c-0.137,0-0.249-0.111-0.25-0.249s0.11-0.25,0.249-0.251
					c8.331-0.047,16.655-0.953,24.742-2.692c14.401-3.037,28.074-8.748,40.64-16.976c12.427-8.131,23.149-18.355,31.87-30.388
					c8.829-12.185,15.192-25.566,18.911-39.774c3.765-14.245,4.9-29.019,3.377-43.913c-1.539-14.724-5.769-28.926-12.568-42.211
					c-6.753-13.208-15.784-24.954-26.841-34.913c-10.973-9.921-23.608-17.66-37.557-23.003C157.538,10.078,142.968,7.381,128,7.346
					c-14.969,0.035-29.539,2.732-43.307,8.018C70.746,20.706,58.11,28.444,47.137,38.366c-11.057,9.959-20.088,21.706-26.84,34.913
					c-6.801,13.287-11.03,27.489-12.569,42.212c-1.524,14.894-0.388,29.668,3.376,43.912c3.72,14.208,10.083,27.59,18.913,39.774
					c8.721,12.033,19.443,22.257,31.869,30.387c12.565,8.229,26.238,13.939,40.639,16.977c8.088,1.739,16.412,2.646,24.742,2.692
					c0.138,0.001,0.25,0.113,0.249,0.251s-0.113,0.249-0.25,0.249h-0.001c-8.364-0.047-16.723-0.957-24.844-2.704
					c-14.46-3.049-28.191-8.784-40.808-17.047c-12.477-8.163-23.244-18.429-32.001-30.512c-8.866-12.234-15.255-25.673-18.991-39.94
					c-3.78-14.302-4.92-29.137-3.39-44.09c1.545-14.785,5.792-29.046,12.621-42.388C26.632,59.79,35.7,47.995,46.802,37.995
					c11.019-9.963,23.708-17.734,37.712-23.098C98.338,9.59,112.969,6.881,128,6.846c15.03,0.035,29.661,2.743,43.486,8.05
					c14.006,5.365,26.693,13.136,37.712,23.099c11.102,10,20.17,21.794,26.951,35.057c6.828,13.34,11.074,27.602,12.621,42.388
					c1.529,14.954,0.389,29.788-3.391,44.091c-3.735,14.268-10.125,27.705-18.991,39.94c-8.756,12.082-19.522,22.349-32.001,30.513
					c-12.617,8.262-26.348,13.997-40.809,17.047c-8.12,1.746-16.479,2.656-24.843,2.703H128.734z"/>
				<g>
					<path fill="#51A25E" d="M128.778,250.233c-0.43,0.011-0.778-0.316-0.777-0.731c0-0.416,0.344-0.761,0.768-0.771
						c0.424-0.01,0.771,0.317,0.777,0.733C129.552,249.879,129.208,250.224,128.778,250.233z"/>
				</g>
				<g>
					<path fill="#51A25E" d="M127.223,250.233c0.429,0.011,0.778-0.316,0.777-0.731c0-0.416-0.345-0.761-0.768-0.771
						c-0.423-0.01-0.772,0.317-0.778,0.733C126.449,249.879,126.793,250.224,127.223,250.233z"/>
				</g>
			</g>
		</g>
		<g>
			<g>
				<path fill="#7EB481" d="M119.182,252.956l-0.404-0.473c-1.794-2.132-1.909-4.505-1.3-6.688
					c-0.088,0.024-0.177,0.048-0.267,0.071c-1.301,0.367-2.49,0.415-3.502,0.431c-0.896,0.002-1.458-0.062-1.482-0.064l-2.075-0.264
					c-0.841-0.133-1.897-0.322-3.132-0.545c-0.712-0.128-1.484-0.268-2.307-0.412c-0.568-0.091-1.143-0.226-1.751-0.368
					l-4.583-1.059l-5.25-1.484c-1.14-0.35-2.284-0.74-3.391-1.119c-0.607-0.208-1.216-0.416-1.827-0.618
					c-1.131-0.387-2.259-0.838-3.35-1.274c-0.605-0.242-1.211-0.484-1.821-0.718c-6.947-2.864-13.656-6.408-19.944-10.537
					c-13.011-8.528-24.522-19.848-33.29-32.735c-9.149-13.42-15.546-29.008-18.498-45.078c-3.054-16.586-2.545-33.992,1.473-50.335
					c3.992-16.5,11.936-32.467,22.974-46.175c10.911-13.554,25.112-24.804,41.069-32.535C92.491,13.339,110.297,9.3,128.018,9.294
					c17.724,0.012,35.528,4.057,51.49,11.696c15.963,7.743,30.161,18.998,41.06,32.548c11.038,13.716,18.978,29.685,22.96,46.183
					c4.014,16.344,4.518,33.75,1.459,50.333c-2.958,16.076-9.359,31.661-18.512,45.072c-8.771,12.886-20.286,24.203-33.299,32.727
					c-6.289,4.127-12.999,7.67-19.94,10.529c-0.619,0.236-1.228,0.479-1.835,0.723c-1.088,0.437-2.214,0.887-3.342,1.27
					c-0.614,0.204-1.225,0.413-1.834,0.621c-1.105,0.378-2.247,0.769-3.38,1.114l-5.245,1.48l-4.632,1.07
					c-0.585,0.137-1.137,0.266-1.687,0.353c-0.788,0.139-1.534,0.273-2.225,0.397c-1.268,0.229-2.352,0.424-3.202,0.558
					l-2.081,0.265c-0.025,0.003-0.601,0.067-1.48,0.064c-1.015-0.016-2.203-0.063-3.509-0.432c-0.089-0.022-0.176-0.046-0.263-0.07
					c0.608,2.185,0.494,4.557-1.299,6.688l-0.404,0.474l-0.381-0.324l0.403-0.473c1.738-2.066,1.771-4.4,1.104-6.536
					c-3.148-1.015-5.321-2.917-6.459-5.665c-0.552-1.317-0.649-2.146-0.3-2.533c0.134-0.149,0.393-0.294,0.851-0.154
					c0.812,0.254,2.122,1.381,3.421,2.941c1.009,1.259,2.217,3.04,2.886,5.011c0.187,0.057,0.377,0.11,0.57,0.16
					c1.358,0.383,2.626,0.402,3.384,0.414c0.875,0.001,1.409-0.061,1.415-0.061l2.071-0.264c0.841-0.133,1.92-0.327,3.184-0.555
					c0.691-0.124,1.438-0.259,2.231-0.398c0.536-0.085,1.079-0.212,1.654-0.346l4.621-1.067l5.229-1.477
					c1.12-0.342,2.259-0.731,3.359-1.107c0.611-0.209,1.223-0.419,1.838-0.622c1.113-0.378,2.232-0.826,3.314-1.26
					c0.61-0.244,1.221-0.489,1.836-0.724c6.907-2.846,13.588-6.373,19.852-10.482c12.958-8.488,24.425-19.758,33.159-32.59
					c9.114-13.354,15.487-28.874,18.433-44.881c3.047-16.516,2.544-33.849-1.453-50.125c-3.965-16.427-11.871-32.329-22.862-45.987
					C209.325,40.358,195.187,29.15,179.29,21.44c-15.893-7.607-33.623-11.634-51.272-11.646C110.371,9.8,92.64,13.822,76.74,21.427
					c-15.889,7.698-30.031,18.901-40.896,32.397c-10.992,13.65-18.902,29.55-22.877,45.979c-4.001,16.276-4.508,33.609-1.466,50.127
					c2.939,16.002,9.308,31.523,18.418,44.887c8.731,12.834,20.194,24.105,33.151,32.599c6.262,4.111,12.942,7.641,19.854,10.49
					c0.606,0.232,1.215,0.476,1.822,0.719c1.085,0.434,2.207,0.883,3.324,1.265c0.61,0.202,1.22,0.411,1.829,0.619
					c1.103,0.377,2.244,0.767,3.37,1.112l5.233,1.48l4.57,1.055c0.603,0.142,1.169,0.274,1.723,0.362
					c0.827,0.146,1.6,0.284,2.313,0.413c1.23,0.222,2.283,0.411,3.114,0.542l2.065,0.263c0.004,0,0.567,0.063,1.416,0.061
					c0.755-0.012,2.023-0.031,3.376-0.413c0.195-0.051,0.386-0.104,0.574-0.161c0.668-1.971,1.876-3.751,2.884-5.007
					c1.302-1.564,2.613-2.691,3.422-2.944c0.462-0.144,0.718,0.006,0.853,0.153c0.35,0.388,0.252,1.217-0.301,2.534
					c-1.137,2.747-3.308,4.649-6.459,5.663c-0.665,2.136-0.633,4.471,1.106,6.538l0.402,0.472L119.182,252.956z M131.693,237.714
					c-0.055,0-0.104,0.012-0.136,0.046c-0.031,0.035-0.288,0.387,0.391,2.006c1.035,2.499,2.98,4.264,5.792,5.26
					c-0.664-1.764-1.754-3.354-2.67-4.497c-1.219-1.465-2.469-2.558-3.181-2.78C131.838,237.732,131.762,237.714,131.693,237.714z
					 M124.307,237.714c-0.069,0-0.145,0.019-0.198,0.035c-0.71,0.222-1.96,1.314-3.183,2.783c-0.914,1.14-2.003,2.73-2.667,4.492
					c2.814-0.995,4.758-2.76,5.792-5.258c0.679-1.62,0.423-1.972,0.391-2.007C124.412,237.726,124.361,237.714,124.307,237.714z"/>
				<g>
					<path fill="#7EB481" d="M134.984,254.688c1.132-0.629,2.674-1.286,3.885-1.498l-2.029-0.644l-1.084-1.725
						C135.789,251.982,135.425,253.536,134.984,254.688z"/>
				</g>
				<g>
					<path fill="#7EB481" d="M121.016,254.688c-1.132-0.629-2.673-1.286-3.885-1.498l2.03-0.644l1.083-1.724
						C120.21,251.982,120.575,253.535,121.016,254.688z"/>
				</g>
			</g>
		</g>
	</g>
</g>
<polygon fill-rule="evenodd" clip-rule="evenodd" fill="#009444" stroke="#009444" stroke-miterlimit="10" points="128,15.651 
	160.396,7.399 184.324,30.743 216.504,39.795 225.557,71.975 248.899,95.904 240.648,128.299 248.899,160.693 225.557,184.624 
	216.504,216.804 184.324,225.856 160.396,249.198 128,240.948 95.605,249.198 71.676,225.856 39.496,216.804 30.444,184.624 
	7.1,160.693 15.352,128.299 7.1,95.904 30.444,71.975 39.496,39.795 71.676,30.743 95.605,7.399 "/>
<g>
	<path fill-rule="evenodd" clip-rule="evenodd" fill="#FFDE17" d="M38,142.921c1.462-5.406,2.805-10.844,4.457-16.192
		c0.515-1.666,0.768-4.434,3.751-3.57c3.292,0.958,1.325,3.189,0.827,4.863c-2.181,7.33-2.67,14.688-0.767,22.147
		c3.795,14.859,15.948,23.593,32.113,22.673c14.124-0.802,26.424-6.193,36.861-15.75c1.091-0.997,2.125-2.153,2.863-3.421
		c2.017-3.48,0.757-5.751-3.249-5.758c-5.001-0.01-9.973-0.083-14.904-1.096c-12.956-2.661-18.926-10.868-16.773-23.792
		c1.227-7.356,5.158-13.323,11.356-17.533c5.988-4.067,12.002-3.44,17.208,1.667c6.575,6.452,9.456,14.785,11.074,23.533
		c0.644,3.475,1.902,4.418,5.427,4.652c20.521,1.355,39.115-4.404,56.62-14.566c1.38-0.803,3.077-1.249,4.258-3.315
		c-10.575-3.841-21.074-7.046-32.34-6.401c-2.627,0.148-5.201,1.065-7.407,2.711c-1.223,0.913-2.432,1.678-1.811,3.612
		c1.347,4.191-0.924,7.65-2.788,12.785c-2.395-7.244-7.146-12.402-4.025-19.539c3.302-7.558,9.433-10.937,17.236-11.608
		c8.817-0.762,17.167,1.758,25.369,4.482c11.053,3.671,21.944,7.925,34.644,6.082c-2.946,6.316-5.01,11.863-13.038,11.387
		c-4.354-0.255-8.193,2.269-11.861,4.69c-8.867,5.867-17.369,12.328-27.324,16.423c-9.184,3.776-18.648,5.953-28.614,5.802
		c-3.799-0.059-7.597-0.007-11.167-0.007c-1.315,2.099-0.935,3.98-1.063,5.759c-0.522,7.417-3.877,13.323-9.53,17.984
		c-8.737,7.199-18.475,12.363-29.74,14.373c-0.589,0.108-1.111,0.604-1.663,0.922c-5.334,0-10.668,0-16.002,0
		c-0.657-1.307-2-0.906-3.051-1.213c-13.032-3.808-21.819-11.903-25.585-25.155c-0.436-1.546,0.071-3.385-1.362-4.634
		C38,151.587,38,147.253,38,142.921z M116.059,135.004c-0.367-7.972-6.313-16.236-13.12-18.459
		c-4.872-1.591-11.406,1.315-13.368,5.944c-1.597,3.764,0.848,7.739,6.458,10.14C102.462,135.386,109.235,135.37,116.059,135.004z"
		/>
	<path fill-rule="evenodd" clip-rule="evenodd" fill="#FFDE17" d="M105.051,69.679c4.32,2.798,7.647,6.364,10.989,10.199
		c-1.868,3.443-4.221,6.317-7.231,9.229c-3.842-3.5-7.548-6.878-11.339-10.334C99.832,75.335,101.988,72.289,105.051,69.679z"/>
	<path fill-rule="evenodd" clip-rule="evenodd" fill="#FFDE17" d="M78.653,79.986c2.274-3.662,4.781-6.469,7.601-9.126
		c3.848,2.2,6.461,5.484,9.505,8.275c1.352,1.241,1.522,2.392,0.375,3.872c-1.829,2.354-3.387,4.933-6.073,7.115
		C86.35,86.823,82.668,83.555,78.653,79.986z"/>
</g>
<circle fill-rule="evenodd" clip-rule="evenodd" fill="none" stroke="#FFDE17" stroke-width="3" stroke-miterlimit="10" cx="128" cy="128.299" r="108.5"/>
</svg>
