<?xml version="1.0" encoding="utf-8"?>
<!-- Generator: Adobe Illustrator 16.0.0, SVG Export Plug-In . SVG Version: 6.00 Build 0)  -->
<!DOCTYPE svg PUBLIC "-//W3C//DTD SVG 1.1//EN" "http://www.w3.org/Graphics/SVG/1.1/DTD/svg11.dtd">
<svg version="1.1" id="Layer_1" xmlns="http://www.w3.org/2000/svg" xmlns:xlink="http://www.w3.org/1999/xlink" x="0px" y="0px"
	 width="256px" height="256px" viewBox="0 0 256 256" enable-background="new 0 0 256 256" xml:space="preserve">
<circle fill="#009444" stroke="#009444" stroke-width="7" stroke-miterlimit="10" cx="128" cy="128.299" r="124"/>
<g>
	<g>
		<path fill="none" stroke="#FFE989" stroke-width="0.25" stroke-linecap="round" stroke-linejoin="round" d="M144.385,250.834
			c0,0,0.785-0.102,2.159-0.275c1.367-0.215,3.313-0.58,5.649-0.994c0.588-0.094,1.189-0.234,1.813-0.381
			c1.572-0.363,3.152-0.729,4.738-1.095c1.812-0.512,3.63-1.024,5.457-1.541c1.813-0.553,3.608-1.2,5.423-1.804
			c1.813-0.616,3.576-1.38,5.376-2.069c7.129-2.937,14.09-6.589,20.722-10.94c13.268-8.69,25.213-20.219,34.592-33.998
			c9.39-13.758,16.104-29.807,19.236-46.838c3.139-17.021,2.734-34.972-1.517-52.291c-4.188-17.333-12.47-33.842-23.857-47.989
			c-11.393-14.162-26.106-25.787-42.657-33.812c-16.594-7.946-35.049-12.145-53.5-12.155c-18.452,0.003-36.909,4.199-53.504,12.14
			C57.96,24.809,43.245,36.435,31.846,50.59C20.454,64.734,12.17,81.242,7.974,98.573c-4.256,17.318-4.665,35.268-1.531,52.291
			c3.128,17.032,9.84,33.081,19.223,46.844c9.375,13.781,21.318,25.313,34.582,34.008c6.631,4.354,13.591,8.009,20.719,10.946
			c1.799,0.689,3.565,1.452,5.375,2.07c1.815,0.604,3.609,1.25,5.423,1.807c1.826,0.518,3.645,1.029,5.457,1.543
			c1.597,0.369,3.188,0.736,4.771,1.104c0.623,0.146,1.226,0.285,1.812,0.379c2.338,0.414,4.283,0.779,5.651,0.994
			c1.374,0.176,2.159,0.276,2.159,0.276"/>
		<g>
			<g>
				<path fill="none" stroke="#FFE35A" stroke-width="0.5" stroke-linecap="round" stroke-linejoin="round" d="M128.734,249.482
					c8.324-0.047,16.648-0.945,24.793-2.697c14.482-3.055,28.353-8.911,40.724-17.012c12.378-8.101,23.255-18.474,31.935-30.449
					c8.678-11.973,15.203-25.537,18.953-39.857c3.78-14.313,4.889-29.29,3.383-44.001c-1.539-14.717-5.855-29.133-12.596-42.3
					c-6.734-13.172-15.904-25.085-26.896-34.985c-10.973-9.922-23.818-17.759-37.633-23.05c-13.816-5.303-28.609-8-43.396-8.034
					c-14.787,0.035-29.581,2.73-43.396,8.034c-13.814,5.291-26.66,13.128-37.634,23.05c-10.991,9.9-20.16,21.813-26.895,34.985
					c-6.74,13.167-11.056,27.583-12.595,42.299c-1.505,14.711-0.399,29.689,3.383,44.001c3.749,14.32,10.275,27.886,18.952,39.857
					c8.68,11.977,19.557,22.35,31.935,30.448c12.371,8.102,26.24,13.959,40.724,17.013c8.144,1.752,16.469,2.649,24.792,2.698"/>
				<g>
					<path fill="#FFE35A" d="M128.777,250.234c-0.429,0.011-0.777-0.318-0.776-0.732c0-0.416,0.344-0.761,0.769-0.771
						c0.424-0.01,0.771,0.317,0.776,0.732S129.208,250.225,128.777,250.234z"/>
				</g>
				<g>
					<path fill="#FFE35A" d="M127.223,250.234c0.429,0.011,0.778-0.318,0.777-0.732c0-0.416-0.345-0.761-0.768-0.771
						c-0.423-0.01-0.772,0.317-0.778,0.732C126.449,249.878,126.793,250.225,127.223,250.234z"/>
				</g>
			</g>
		</g>
		<g>
			<g>
				<path fill="none" stroke="#FFE989" stroke-width="0.5" d="M136.628,252.794l0.403-0.474c3.308-3.932,0.689-8.885-1.766-11.948
					c-1.252-1.505-2.529-2.621-3.303-2.862c-0.768-0.234-1.059,0.416-0.246,2.354c1.463,3.531,4.475,5.072,7.135,5.762
					c1.33,0.376,2.551,0.408,3.441,0.423c0.893,0.004,1.448-0.063,1.448-0.063s0.754-0.096,2.073-0.264
					c1.313-0.205,3.182-0.56,5.427-0.955c0.563-0.089,1.142-0.225,1.739-0.365c1.511-0.349,3.026-0.697,4.549-1.049
					c1.74-0.492,3.486-0.985,5.24-1.48c1.742-0.53,3.465-1.155,5.207-1.732c1.739-0.59,3.434-1.326,5.162-1.986
					c6.844-2.819,13.528-6.326,19.898-10.506c12.742-8.349,24.221-19.424,33.229-32.658c9.02-13.215,15.463-28.623,18.473-44.978
					c3.014-16.343,2.625-33.607-1.456-50.23c-4.019-16.642-11.974-32.493-22.912-46.084c-10.942-13.605-25.083-24.771-40.974-32.479
					c-15.937-7.627-33.646-11.659-51.381-11.671c-17.736,0.006-35.447,4.034-51.385,11.657c-15.894,7.7-30.034,18.867-40.983,32.466
					C24.708,67.256,16.75,83.106,12.724,99.746c-4.086,16.622-4.479,33.885-1.469,50.23c3.004,16.354,9.445,31.763,18.458,44.98
					c9.005,13.236,20.48,24.316,33.22,32.668c6.369,4.182,13.053,7.689,19.896,10.512c1.729,0.662,3.423,1.396,5.161,1.989
					c1.743,0.578,3.465,1.2,5.207,1.733c1.753,0.496,3.5,0.99,5.239,1.481c1.533,0.354,3.061,0.706,4.581,1.058
					c0.599,0.141,1.177,0.276,1.74,0.365c2.246,0.396,4.113,0.748,5.427,0.955c1.319,0.168,2.073,0.264,2.073,0.264
					s0.557,0.066,1.448,0.063c0.892-0.014,2.113-0.046,3.443-0.422c2.659-0.688,5.671-2.229,7.133-5.763
					c0.812-1.937,0.521-2.586-0.247-2.354c-0.772,0.242-2.049,1.357-3.302,2.862c-2.457,3.063-5.073,8.019-1.765,11.95l0.404,0.473"
					/>
				<g>
					<path fill="#FFE989" d="M134.984,254.688c1.132-0.629,2.674-1.285,3.885-1.498l-2.029-0.645l-1.084-1.725
						C135.789,251.982,135.425,253.535,134.984,254.688z"/>
				</g>
				<g>
					<path fill="#FFE989" d="M121.016,254.688c-1.132-0.629-2.673-1.285-3.885-1.498l2.03-0.645l1.083-1.723
						C120.21,251.982,120.575,253.535,121.016,254.688z"/>
				</g>
			</g>
		</g>
	</g>
</g>
<polygon fill="#FFDE17" stroke="#FFDE17" stroke-miterlimit="10" points="128,15.651 160.396,7.399 184.325,30.743 216.505,39.795 
	225.559,71.975 248.9,95.904 240.648,128.299 248.9,160.693 225.559,184.624 216.505,216.805 184.325,225.855 160.396,249.198 
	128,240.948 95.606,249.198 71.677,225.855 39.497,216.805 30.445,184.624 7.101,160.693 15.353,128.299 7.101,95.904 
	30.445,71.975 39.497,39.795 71.677,30.743 95.606,7.399 "/>
<g>
	<path fill="#009444" d="M40.727,139.825c1.461-5.406,2.804-10.845,4.456-16.19c0.516-1.665,0.767-4.434,3.752-3.57
		c3.292,0.957,1.325,3.188,0.827,4.863c-2.18,7.33-2.67,14.687-0.766,22.148c3.795,14.858,15.947,23.594,32.112,22.673
		c14.125-0.802,26.425-6.193,36.862-15.75c1.09-0.999,2.125-2.153,2.863-3.422c2.017-3.479,0.757-5.751-3.251-5.758
		c-5-0.01-9.973-0.084-14.902-1.096c-12.955-2.66-18.926-10.866-16.773-23.79c1.227-7.357,5.159-13.324,11.356-17.535
		c5.989-4.067,12.002-3.441,17.208,1.667c6.574,6.453,9.455,14.784,11.073,23.534c0.644,3.474,1.904,4.418,5.427,4.65
		c20.521,1.357,39.117-4.403,56.623-14.565c1.378-0.803,3.076-1.249,4.256-3.313c-10.573-3.842-21.074-7.046-32.342-6.402
		c-2.625,0.148-5.201,1.065-7.404,2.711c-1.222,0.914-2.433,1.679-1.812,3.612c1.347,4.193-0.924,7.649-2.787,12.785
		c-2.396-7.244-7.148-12.402-4.028-19.539c3.305-7.559,9.435-10.938,17.239-11.609c8.814-0.762,17.166,1.759,25.369,4.483
		c11.05,3.67,21.943,7.924,34.643,6.082c-2.948,6.315-5.009,11.864-13.038,11.386c-4.354-0.257-8.192,2.269-11.861,4.689
		c-8.867,5.866-17.37,12.329-27.326,16.424c-9.183,3.775-18.647,5.953-28.612,5.801c-3.8-0.057-7.597-0.005-11.167-0.005
		c-1.317,2.099-0.936,3.979-1.063,5.758c-0.521,7.418-3.877,13.323-9.529,17.984c-8.737,7.198-18.477,12.362-29.741,14.374
		c-0.589,0.108-1.112,0.602-1.662,0.92c-5.335,0-10.669,0-16.002,0c-0.657-1.305-2-0.906-3.051-1.213
		c-13.032-3.808-21.818-11.903-25.584-25.155c-0.436-1.546,0.07-3.385-1.361-4.633C40.727,148.49,40.727,144.157,40.727,139.825z
		 M118.784,131.909c-0.368-7.973-6.313-16.237-13.12-18.459c-4.872-1.591-11.406,1.315-13.369,5.943
		c-1.596,3.766,0.848,7.741,6.458,10.14C105.188,132.292,111.961,132.274,118.784,131.909z"/>
	<path fill="#009444" d="M107.777,66.582c4.32,2.799,7.647,6.364,10.989,10.2c-1.867,3.443-4.222,6.316-7.231,9.229
		c-3.843-3.5-7.549-6.879-11.34-10.333C102.557,72.238,104.713,69.194,107.777,66.582z"/>
	<path fill="#009444" d="M81.378,76.889c2.274-3.662,4.781-6.469,7.603-9.126c3.848,2.2,6.461,5.485,9.504,8.275
		c1.351,1.241,1.521,2.392,0.375,3.873c-1.828,2.354-3.387,4.932-6.073,7.115C89.076,83.727,85.393,80.459,81.378,76.889z"/>
</g>
<circle fill="none" stroke="#009444" stroke-width="3" stroke-miterlimit="10" cx="128" cy="128.299" r="108.5"/>
</svg>
