<?xml version="1.0" encoding="utf-8"?>
<!-- Generator: Adobe Illustrator 16.0.0, SVG Export Plug-In . SVG Version: 6.00 Build 0)  -->
<!DOCTYPE svg PUBLIC "-//W3C//DTD SVG 1.1//EN" "http://www.w3.org/Graphics/SVG/1.1/DTD/svg11.dtd">
<svg version="1.1" id="Layer_1" xmlns="http://www.w3.org/2000/svg" xmlns:xlink="http://www.w3.org/1999/xlink" x="0px" y="0px"
	 width="256px" height="256px" viewBox="0 0 256 256" enable-background="new 0 0 256 256" xml:space="preserve">
<g>
	
		<circle fill-rule="evenodd" clip-rule="evenodd" fill="#009444" stroke="#009444" stroke-width="7" stroke-miterlimit="10" cx="128" cy="128.299" r="124"/>
	<g>
		<g>
			<path fill="none" stroke="#FFE989" stroke-width="0.25" stroke-linecap="round" stroke-linejoin="round" d="M144.385,250.834
				c0,0,0.785-0.101,2.159-0.275c1.367-0.215,3.313-0.581,5.65-0.995c0.587-0.093,1.189-0.234,1.813-0.38
				c1.572-0.363,3.152-0.729,4.738-1.095c1.812-0.512,3.63-1.025,5.457-1.541c1.814-0.553,3.608-1.201,5.423-1.804
				c1.812-0.616,3.576-1.38,5.376-2.069c7.129-2.937,14.09-6.589,20.722-10.94c13.267-8.691,25.213-20.22,34.592-33.998
				c9.389-13.758,16.104-29.807,19.236-46.838c3.139-17.021,2.734-34.972-1.517-52.291c-4.188-17.333-12.47-33.842-23.857-47.989
				c-11.393-14.162-26.107-25.787-42.657-33.812c-16.594-7.946-35.049-12.145-53.501-12.155
				c-18.452,0.003-36.909,4.199-53.504,12.14C57.96,24.809,43.245,36.435,31.846,50.59C20.454,64.734,12.17,81.242,7.974,98.573
				c-4.256,17.318-4.665,35.268-1.531,52.291c3.128,17.032,9.84,33.082,19.223,46.844c9.375,13.781,21.318,25.313,34.582,34.008
				c6.631,4.354,13.591,8.008,20.719,10.946c1.799,0.69,3.565,1.452,5.375,2.071c1.815,0.604,3.609,1.25,5.423,1.806
				c1.826,0.517,3.645,1.03,5.457,1.543c1.597,0.369,3.188,0.736,4.771,1.103c0.623,0.146,1.226,0.286,1.812,0.38
				c2.338,0.414,4.283,0.779,5.651,0.994c1.374,0.176,2.159,0.276,2.159,0.276"/>
			<g>
				<g>
					<path fill="none" stroke="#FFE35A" stroke-width="0.5" stroke-linecap="round" stroke-linejoin="round" d="M128.734,249.483
						c8.324-0.048,16.649-0.946,24.793-2.698c14.483-3.054,28.353-8.911,40.724-17.012c12.378-8.1,23.255-18.473,31.935-30.449
						c8.677-11.973,15.202-25.537,18.952-39.857c3.781-14.313,4.889-29.29,3.383-44.001c-1.538-14.717-5.855-29.133-12.595-42.3
						c-6.734-13.172-15.904-25.085-26.896-34.985c-10.974-9.922-23.819-17.759-37.634-23.05c-13.816-5.303-28.609-8-43.396-8.034
						c-14.787,0.035-29.581,2.73-43.396,8.034c-13.814,5.291-26.66,13.128-37.634,23.05C35.979,48.081,26.81,59.994,20.075,73.166
						C13.335,86.333,9.019,100.749,7.48,115.465c-1.505,14.711-0.399,29.689,3.383,44.001c3.749,14.32,10.275,27.885,18.952,39.857
						c8.68,11.977,19.557,22.35,31.935,30.449c12.371,8.101,26.24,13.958,40.724,17.012c8.144,1.752,16.469,2.65,24.792,2.698"/>
					<g>
						<path fill="#FFE35A" d="M128.778,250.234c-0.43,0.011-0.778-0.318-0.777-0.732c0-0.416,0.344-0.761,0.768-0.771
							s0.771,0.317,0.777,0.732S129.208,250.224,128.778,250.234z"/>
					</g>
					<g>
						<path fill="#FFE35A" d="M127.223,250.234c0.429,0.011,0.778-0.318,0.777-0.732c0-0.416-0.345-0.761-0.768-0.771
							s-0.772,0.317-0.778,0.732C126.449,249.878,126.793,250.224,127.223,250.234z"/>
					</g>
				</g>
			</g>
			<g>
				<g>
					<path fill="none" stroke="#FFE989" stroke-width="0.5" d="M136.628,252.794l0.403-0.473c3.308-3.933,0.69-8.886-1.766-11.949
						c-1.252-1.505-2.529-2.621-3.302-2.862c-0.768-0.234-1.058,0.416-0.246,2.353c1.462,3.531,4.475,5.073,7.134,5.762
						c1.33,0.376,2.551,0.408,3.442,0.423c0.892,0.004,1.448-0.063,1.448-0.063s0.754-0.096,2.073-0.264
						c1.313-0.206,3.182-0.56,5.427-0.955c0.563-0.089,1.142-0.225,1.74-0.365c1.51-0.349,3.026-0.698,4.549-1.05
						c1.739-0.491,3.486-0.985,5.24-1.48c1.742-0.53,3.464-1.155,5.207-1.732c1.739-0.59,3.433-1.326,5.161-1.987
						c6.845-2.819,13.529-6.326,19.899-10.506c12.742-8.348,24.221-19.424,33.229-32.658c9.019-13.215,15.462-28.623,18.472-44.977
						c3.014-16.343,2.625-33.607-1.456-50.23c-4.019-16.642-11.974-32.493-22.912-46.084
						c-10.942-13.605-25.083-24.771-40.973-32.479c-15.937-7.627-33.646-11.659-51.382-11.671
						c-17.736,0.006-35.447,4.034-51.385,11.657c-15.894,7.7-30.034,18.867-40.983,32.466C24.708,67.256,16.75,83.106,12.724,99.746
						c-4.086,16.622-4.479,33.885-1.469,50.23c3.004,16.354,9.445,31.763,18.458,44.981c9.005,13.236,20.48,24.316,33.22,32.668
						c6.369,4.182,13.053,7.69,19.896,10.512c1.729,0.662,3.423,1.396,5.161,1.989c1.743,0.578,3.465,1.2,5.207,1.734
						c1.753,0.495,3.5,0.989,5.239,1.481c1.533,0.354,3.061,0.706,4.581,1.058c0.599,0.14,1.177,0.276,1.74,0.365
						c2.246,0.396,4.113,0.748,5.427,0.955c1.319,0.168,2.073,0.264,2.073,0.264s0.557,0.066,1.448,0.063
						c0.892-0.014,2.113-0.046,3.443-0.422c2.659-0.688,5.671-2.23,7.133-5.762c0.812-1.937,0.521-2.587-0.247-2.354
						c-0.772,0.242-2.049,1.357-3.302,2.862c-2.457,3.064-5.073,8.018-1.765,11.95l0.404,0.473"/>
					<g>
						<path fill="#FFE989" d="M134.984,254.688c1.132-0.629,2.674-1.286,3.885-1.499l-2.029-0.644l-1.084-1.724
							C135.789,251.982,135.425,253.535,134.984,254.688z"/>
					</g>
					<g>
						<path fill="#FFE989" d="M121.016,254.688c-1.132-0.629-2.673-1.286-3.885-1.499l2.03-0.644l1.083-1.723
							C120.21,251.982,120.575,253.535,121.016,254.688z"/>
					</g>
				</g>
			</g>
		</g>
	</g>
	<polygon fill-rule="evenodd" clip-rule="evenodd" fill="#FFDE17" stroke="#FFDE17" stroke-miterlimit="10" points="128,15.651 
		160.396,7.399 184.325,30.743 216.505,39.795 225.558,71.975 248.9,95.904 240.649,128.299 248.9,160.693 225.558,184.624 
		216.505,216.804 184.325,225.856 160.396,249.198 128,240.948 95.606,249.198 71.677,225.856 39.497,216.804 30.445,184.624 
		7.101,160.693 15.353,128.299 7.101,95.904 30.445,71.975 39.497,39.795 71.677,30.743 95.606,7.399 	"/>
	<g>
		<path fill-rule="evenodd" clip-rule="evenodd" fill="#009444" d="M41.202,145.85c0.995-3.681,1.909-7.383,3.034-11.023
			c0.351-1.134,0.522-3.019,2.554-2.431c2.241,0.652,0.902,2.171,0.563,3.311c-1.484,4.99-1.818,9.999-0.522,15.078
			c2.584,10.116,10.857,16.062,21.862,15.436c9.616-0.546,17.99-4.217,25.095-10.723c0.743-0.679,1.447-1.466,1.949-2.329
			c1.373-2.369,0.516-3.915-2.212-3.92c-3.405-0.007-6.79-0.057-10.146-0.746c-8.82-1.812-12.885-7.398-11.419-16.197
			c0.835-5.008,3.512-9.07,7.731-11.937c4.077-2.769,8.171-2.342,11.715,1.135c4.476,4.393,6.437,10.065,7.539,16.021
			c0.438,2.365,1.295,3.008,3.695,3.167c13.971,0.923,26.63-2.998,38.547-9.916c0.939-0.547,2.095-0.851,2.898-2.257
			c-7.199-2.615-14.347-4.797-22.017-4.358c-1.788,0.101-3.541,0.725-5.042,1.846c-0.832,0.622-1.656,1.143-1.233,2.459
			c0.917,2.854-0.629,5.208-1.898,8.704c-1.63-4.932-4.866-8.444-2.741-13.302c2.249-5.146,6.422-7.446,11.735-7.903
			c6.002-0.519,11.687,1.197,17.271,3.052c7.524,2.499,14.939,5.395,23.585,4.14c-2.006,4.3-3.41,8.077-8.876,7.752
			c-2.964-0.174-5.578,1.545-8.075,3.193c-6.037,3.994-11.825,8.393-18.603,11.181c-6.252,2.571-12.696,4.053-19.48,3.95
			c-2.587-0.04-5.172-0.005-7.603-0.005c-0.896,1.429-0.636,2.71-0.723,3.921c-0.355,5.049-2.64,9.07-6.488,12.243
			c-5.948,4.901-12.578,8.417-20.247,9.785c-0.401,0.074-0.757,0.411-1.132,0.628c-3.632,0-7.263,0-10.894,0
			c-0.447-0.89-1.362-0.617-2.077-0.826c-8.872-2.592-14.854-8.104-17.418-17.125c-0.297-1.053,0.048-2.305-0.927-3.155
			C41.202,151.749,41.202,148.799,41.202,145.85z M94.343,140.46c-0.25-5.428-4.298-11.054-8.932-12.567
			c-3.317-1.083-7.765,0.895-9.101,4.047c-1.087,2.563,0.577,5.269,4.396,6.903C85.087,140.72,89.698,140.709,94.343,140.46z"/>
		<path fill-rule="evenodd" clip-rule="evenodd" fill="#009444" d="M214.8,132.915c-0.231,1.897-0.648,3.8-0.658,5.699
			c-0.025,5.061-2.729,8.622-6.038,11.937c-1.192-0.593-0.725-1.487-0.666-2.163c1.469-17.117,0.067-34.155-1.263-51.201
			c-0.175-2.255-0.289-4.518-0.504-6.77c-0.08-0.832-0.068-1.582,0.504-2.229c1.918-2.161,3.646-4.515,6.428-6.503
			c0.922,7.657,1.301,14.844,1.496,22.049c0.128,4.511-0.195,9.049,0.701,13.522C214.8,122.475,214.8,127.696,214.8,132.915z"/>
		<path fill-rule="evenodd" clip-rule="evenodd" fill="#009444" d="M152.018,133.226c1.271,6.049,5.721,7.334,10.991,7.324
			c2.265-0.005,4.545,0.093,6.791-0.134c5.405-0.547,8.386-3.614,8.199-8.927c-0.345-9.846-0.947-19.683-1.53-29.521
			c-0.212-3.499-0.604-6.993-1.051-10.471c-0.623-4.844,2.045-7.77,6.003-10.705c0.558,5.79,2.569,10.627,5.746,15.487
			c-5.647,2.317-4.025,6.91-3.931,11.226c0.193,8.818,1.038,17.651-0.449,26.451c-2.842,16.854-16.402,17.542-28.255,13.423
			c-4.257-1.48-6.498-8.155-4.958-12.24C149.972,134.088,150.925,133.74,152.018,133.226z"/>
		<path fill-rule="evenodd" clip-rule="evenodd" fill="#009444" d="M86.85,95.986c2.941,1.905,5.206,4.333,7.481,6.944
			c-1.271,2.344-2.874,4.3-4.923,6.283c-2.616-2.383-5.139-4.683-7.72-7.035C83.296,99.837,84.764,97.764,86.85,95.986z"/>
		<path fill-rule="evenodd" clip-rule="evenodd" fill="#009444" d="M68.878,103.003c1.548-2.493,3.255-4.404,5.175-6.213
			c2.62,1.498,4.399,3.734,6.471,5.634c0.92,0.845,1.036,1.628,0.255,2.636c-1.245,1.603-2.306,3.358-4.135,4.844
			C74.118,107.658,71.611,105.433,68.878,103.003z"/>
	</g>
	
		<circle fill-rule="evenodd" clip-rule="evenodd" fill="none" stroke="#009444" stroke-width="3" stroke-miterlimit="10" cx="128" cy="128.299" r="108.5"/>
</g>
</svg>
